<?xml version="1.0" encoding="UTF-8" standalone="no"?>
<!-- Created with Inkscape (http://www.inkscape.org/) -->

<svg
   width="16.0px"
   height="16.0px"
   viewBox="0 0 16.0 16.0"
   version="1.1"
   id="SVGRoot"
   sodipodi:docname="checkbox-square-checked.svg"
   inkscape:version="1.2.2 (732a01da63, 2022-12-09)"
   xmlns:inkscape="http://www.inkscape.org/namespaces/inkscape"
   xmlns:sodipodi="http://sodipodi.sourceforge.net/DTD/sodipodi-0.dtd"
   xmlns="http://www.w3.org/2000/svg"
   xmlns:svg="http://www.w3.org/2000/svg">
  <sodipodi:namedview
     id="namedview311"
     pagecolor="#505050"
     bordercolor="#000000"
     borderopacity="1"
     inkscape:showpageshadow="0"
     inkscape:pageopacity="0"
     inkscape:pagecheckerboard="true"
     inkscape:deskcolor="#505050"
     inkscape:document-units="px"
     showgrid="true"
     inkscape:zoom="14.551915"
     inkscape:cx="14.293651"
     inkscape:cy="4.8790828"
     inkscape:window-width="1920"
     inkscape:window-height="1017"
     inkscape:window-x="-8"
     inkscape:window-y="-8"
     inkscape:window-maximized="1"
     inkscape:current-layer="layer18" />
  <defs
     id="defs306" />
  <g
     inkscape:groupmode="layer"
     id="layer18"
     inkscape:label="Layer 18">
    <path
       id="path3089-1"
       style="color:#000000;fill:#ffffff;stroke-linecap:round;stroke-linejoin:round;-inkscape-stroke:none"
       d="m 3.5361328,2.7919917 a 0.7450745,0.7450745 0 0 0 -0.744141,0.744141 v 8.9277343 a 0.7450745,0.7450745 0 0 0 0.744141,0.744141 h 8.9277342 a 0.7450745,0.7450745 0 0 0 0.744141,-0.744141 V 3.5361327 a 0.7450745,0.7450745 0 0 0 -0.744141,-0.744141 z m 0.746093,1.490235 H 11.717773 V 11.717773 H 4.2822258 Z m 3.716797,1.490234 c -1.221663,0 -2.228516,1.0049 -2.228515,2.226562 0,1.221663 1.006852,2.2285163 2.228515,2.2285163 1.221663,0 2.2285162,-1.0068532 2.2285162,-2.2285163 0,-1.221662 -1.0068532,-2.2265609 -2.2285162,-2.226562 z" />
  </g>
</svg>
