<!-- Created with Inkscape (http://www.inkscape.org/) --><svg xmlns:inkscape="http://www.inkscape.org/namespaces/inkscape" xmlns:sodipodi="http://sodipodi.sourceforge.net/DTD/sodipodi-0.dtd" xmlns="http://www.w3.org/2000/svg" xmlns:svg="http://www.w3.org/2000/svg" width="16.0px" height="16.0px" viewBox="0 0 16.0 16.0" version="1.1" id="SVGRoot" sodipodi:docname="drawing.tar" inkscape:version="1.2.2 (732a01da63, 2022-12-09)">
  <sodipodi:namedview id="namedview311" pagecolor="#505050" bordercolor="#000000" borderopacity="1" inkscape:showpageshadow="0" inkscape:pageopacity="0" inkscape:pagecheckerboard="true" inkscape:deskcolor="#505050" inkscape:document-units="px" showgrid="true" inkscape:zoom="22.737368" inkscape:cx="4.3320758" inkscape:cy="2.550867" inkscape:window-width="1920" inkscape:window-height="1017" inkscape:window-x="-8" inkscape:window-y="-8" inkscape:window-maximized="1" inkscape:current-layer="layer3"/>
  <defs id="defs306"/>
  <g inkscape:groupmode="layer" id="layer22" inkscape:label="Layer 22">
    <path id="path4012" style="color:#000000;fill:#ffffff;stroke-linecap:round;stroke-linejoin:round;-inkscape-stroke:none" d="m 7.2529304,4.7705081 c 0,0.828125 0,1.65625 0,2.484375 -0.8274733,0 -1.6549467,0 -2.48242,0 0,0.497396 0,0.994792 0,1.492188 0.8274733,0 1.6549467,0 2.48242,0 0,0.827474 0,1.6549479 0,2.4824219 0.4973967,0 0.9947933,0 1.49219,0 0,-0.827474 0,-1.6549479 0,-2.4824219 0.8281232,0 1.6562466,0 2.4843696,0 0,-0.497396 0,-0.994792 0,-1.492188 -0.828123,0 -1.6562464,0 -2.4843696,0 0,-0.828125 0,-1.65625 0,-2.484375 -0.4973967,0 -0.9947933,0 -1.49219,0 z" sodipodi:nodetypes="ccccccccccccc"/>
  </g>
</svg>
