<!-- Created with Inkscape (http://www.inkscape.org/) --><svg xmlns:inkscape="http://www.inkscape.org/namespaces/inkscape" xmlns:sodipodi="http://sodipodi.sourceforge.net/DTD/sodipodi-0.dtd" xmlns="http://www.w3.org/2000/svg" xmlns:svg="http://www.w3.org/2000/svg" width="16.0px" height="16.0px" viewBox="0 0 16.0 16.0" version="1.1" id="SVGRoot" sodipodi:docname="drawing.tar" inkscape:version="1.2.2 (732a01da63, 2022-12-09)">
  <sodipodi:namedview id="namedview311" pagecolor="#505050" bordercolor="#000000" borderopacity="1" inkscape:showpageshadow="0" inkscape:pageopacity="0" inkscape:pagecheckerboard="true" inkscape:deskcolor="#505050" inkscape:document-units="px" showgrid="true" inkscape:zoom="22.737368" inkscape:cx="4.3320758" inkscape:cy="2.550867" inkscape:window-width="1920" inkscape:window-height="1017" inkscape:window-x="-8" inkscape:window-y="-8" inkscape:window-maximized="1" inkscape:current-layer="layer3"/>
  <defs id="defs306"/>
  <g inkscape:groupmode="layer" id="layer3" inkscape:label="Layer 3">
    <path id="text741" style="font-style:normal;font-variant:normal;font-weight:bold;font-stretch:normal;font-size:9.01866px;font-family:'JetBrains Mono';-inkscape-font-specification:'JetBrains Mono Bold';fill:#ffffff;stroke-width:0.900002;stroke-linecap:round;stroke-linejoin:round" d="m 7.5650154,4.6630881 c -0.43289,0 -0.80829,0.0836 -1.12695,0.251953 -0.31265,0.168347 -0.55986,0.406257 -0.74023,0.71289 -0.17436,0.300622 -0.26352,0.661161 -0.26953,1.082031 h 1.12695 c 0,-0.324671 0.0874,-0.577439 0.26172,-0.757812 0.18037,-0.186385 0.42383,-0.279297 0.73047,-0.279297 0.29461,0 0.52876,0.09111 0.70312,0.271485 0.17436,0.174359 0.26172,0.419622 0.26172,0.73828 0,0.216448 -0.0576,0.43019 -0.17188,0.640625 -0.10821,0.210435 -0.27543,0.437238 -0.5039,0.677735 l -2.22852,2.3085929 v 1.027343 h 4.11328 v -1.019531 h -2.73242 l 1.53321,-1.5683589 c 0.3908,-0.396821 0.67329,-0.762914 0.84765,-1.09961 0.18037,-0.342708 0.26953,-0.688388 0.26953,-1.037109 0,-0.601242 -0.18957,-1.07706 -0.56836,-1.425781 -0.37277,-0.348721 -0.87455,-0.523437 -1.50586,-0.523436 z m -5.40519,1.437868 0.50654,0.889357 0.82916,-0.488728 v 4.8158269 h 1.12695 V 4.6791731 Z m 7.74894,-1.437868 0.5618896,0.964843 h 1.91858 l -1.43555,1.480468 v 0.90039 h 0.77735 c 0.30663,0 0.54258,0.08556 0.71093,0.253907 0.17436,0.162336 0.26172,0.390938 0.26172,0.685546 v 0.496094 c 0,0.288597 -0.0836,0.517199 -0.25195,0.6855469 -0.16835,0.168348 -0.40806,0.251953 -0.7207,0.251953 h -1 l -0.01,0.955078 h 1 c 0.42688,0 0.80048,-0.07805 1.11914,-0.234375 0.31866,-0.156323 0.56392,-0.375619 0.73828,-0.658203 0.17436,-0.282584 0.26172,-0.6152039 0.26172,-0.9999999 v -0.496094 c 0,-0.517068 -0.15055,-0.940799 -0.45117,-1.271484 -0.30062,-0.330683 -0.71129,-0.53332 -1.23438,-0.605469 l 1.45118,-1.478515 v -0.929688 z" sodipodi:nodetypes="scccccscscccccccccscsccccccccccccscsssccccssssscccc"/>
  </g>
  </svg>
