<!-- Created with Inkscape (http://www.inkscape.org/) --><svg xmlns:inkscape="http://www.inkscape.org/namespaces/inkscape" xmlns:sodipodi="http://sodipodi.sourceforge.net/DTD/sodipodi-0.dtd" xmlns="http://www.w3.org/2000/svg" xmlns:svg="http://www.w3.org/2000/svg" width="16.0px" height="16.0px" viewBox="0 0 16.0 16.0" version="1.1" id="SVGRoot" sodipodi:docname="drawing.tar" inkscape:version="1.2.2 (732a01da63, 2022-12-09)">
  <sodipodi:namedview id="namedview311" pagecolor="#505050" bordercolor="#000000" borderopacity="1" inkscape:showpageshadow="0" inkscape:pageopacity="0" inkscape:pagecheckerboard="true" inkscape:deskcolor="#505050" inkscape:document-units="px" showgrid="true" inkscape:zoom="22.737368" inkscape:cx="4.3320758" inkscape:cy="2.550867" inkscape:window-width="1920" inkscape:window-height="1017" inkscape:window-x="-8" inkscape:window-y="-8" inkscape:window-maximized="1" inkscape:current-layer="layer3"/>
  <defs id="defs306"/>
  <g inkscape:groupmode="layer" id="layer19" inkscape:label="Layer 19">
    <path id="path3089-1" style="color:#000000;fill:#ffffff;stroke-linecap:round;stroke-linejoin:round;-inkscape-stroke:none" d="m 7.9990224,2.7919931 c -2.867469,0 -5.207031,2.339562 -5.207031,5.207031 0,2.8674689 2.339562,5.2089839 5.207031,5.2089839 2.8674686,0 5.2089866,-2.341515 5.2089866,-5.2089839 0,-2.867469 -2.341518,-5.207031 -5.2089866,-5.207031 z m 0,1.490234 c 2.0622146,0 3.7187496,1.654582 3.7187496,3.716797 0,2.0622149 -1.656535,3.7187499 -3.7187496,3.7187499 -2.062215,0 -3.71875,-1.656535 -3.71875,-3.7187499 0,-2.062215 1.656535,-3.716797 3.71875,-3.716797 z m 0,1.490234 c -1.221664,0 -2.228516,1.004899 -2.228515,2.226563 0,1.221664 1.006851,2.2285159 2.228515,2.2285159 z" sodipodi:nodetypes="sssssssssscscc"/>
  </g>
  </svg>
