<!-- Created with Inkscape (http://www.inkscape.org/) --><svg xmlns:inkscape="http://www.inkscape.org/namespaces/inkscape" xmlns:sodipodi="http://sodipodi.sourceforge.net/DTD/sodipodi-0.dtd" xmlns="http://www.w3.org/2000/svg" xmlns:svg="http://www.w3.org/2000/svg" width="16.0px" height="16.0px" viewBox="0 0 16.0 16.0" version="1.1" id="SVGRoot" sodipodi:docname="drawing.tar" inkscape:version="1.2.2 (732a01da63, 2022-12-09)">
  <sodipodi:namedview id="namedview311" pagecolor="#505050" bordercolor="#000000" borderopacity="1" inkscape:showpageshadow="0" inkscape:pageopacity="0" inkscape:pagecheckerboard="true" inkscape:deskcolor="#505050" inkscape:document-units="px" showgrid="true" inkscape:zoom="22.737368" inkscape:cx="4.3320758" inkscape:cy="2.550867" inkscape:window-width="1920" inkscape:window-height="1017" inkscape:window-x="-8" inkscape:window-y="-8" inkscape:window-maximized="1" inkscape:current-layer="layer3"/>
  <defs id="defs306"/>
  <g inkscape:groupmode="layer" id="layer4" inkscape:label="Layer 4">
    <path id="text745" style="font-style:normal;font-variant:normal;font-weight:bold;font-stretch:normal;font-size:9.01866px;font-family:'JetBrains Mono';-inkscape-font-specification:'JetBrains Mono Bold';fill:#ffffff;stroke-width:0.900002;stroke-linecap:round;stroke-linejoin:round" d="m 5.9827394,4.6630871 v 6.5839839 h 1.09961 v -0.910156 c 0.06012,0.318658 0.206921,0.563921 0.441406,0.738281 0.234485,0.17436 0.533786,0.261718 0.894531,0.261718 0.499032,0 0.898604,-0.16721 1.199214,-0.503906 C 9.9181304,10.4903 10.06868,10.027542 10.06868,9.4443361 v -1.345703 c 0,-0.583205 -0.1505496,-1.045963 -0.4511796,-1.388672 -0.30061,-0.342708 -0.700182,-0.513672 -1.199214,-0.513672 -0.366757,0 -0.671612,0.09291 -0.912109,0.279297 -0.234485,0.180373 -0.377529,0.433142 -0.431641,0.757813 l 0.03516,-1.181641 v -1.388672 z m -2.984375,1.533204 c -0.583206,0 -1.060823,0.141244 -1.433594,0.423828 -0.366759,0.276571 -0.561888,0.646418 -0.58593795,1.109375 H 2.0510984 c 0.01804,-0.180373 0.10915,-0.323417 0.271484,-0.431641 0.168349,-0.108224 0.382092,-0.164062 0.640625,-0.164062 0.282585,0 0.50188,0.06695 0.658204,0.199218 0.156322,0.132274 0.234374,0.318097 0.234374,0.558594 v 0.416016 h -1.191406 c -0.601242,0 -1.069553,0.133737 -1.40625,0.404297 -0.33669495,0.264545 -0.50585895,0.641899 -0.50585895,1.128905 0,0.4629569 0.148751,0.8290509 0.44335895,1.0996099 0.29461,0.264547 0.695975,0.396484 1.207032,0.396484 0.396819,0 0.725841,-0.07985 0.984374,-0.242187 0.258535,-0.168349 0.420192,-0.396951 0.486329,-0.685547 h 0.01758 v 0.83789 h 1.091797 V 7.8837901 c 0,-0.523082 -0.176518,-0.935707 -0.53125,-1.236329 -0.354734,-0.300621 -0.839858,-0.451171 -1.453125,-0.451171 z m 10.1653856,0 c -0.42087,0 -0.79072,0.0818 -1.10938,0.24414 -0.31264,0.156323 -0.55611,0.381171 -0.73047,0.675781 -0.17436,0.288597 -0.26171,0.632477 -0.26171,1.029297 v 1.24414 c 0,0.39682 0.0873,0.7424999 0.26171,1.0371099 0.17436,0.288596 0.41783,0.513445 0.73047,0.675781 0.31866,0.156323 0.68851,0.234375 1.10938,0.234375 0.62529,0 1.12332,-0.159857 1.49609,-0.478516 0.37277,-0.324671 0.56986,-0.763263 0.58789,-1.3164059 h -1.10156 c -0.018,0.258534 -0.11275,0.4611699 -0.28711,0.6054679 -0.17436,0.138286 -0.40672,0.207032 -0.69531,0.207032 -0.30062,0 -0.53853,-0.08361 -0.71289,-0.251953 C 12.2765,9.9341921 12.18914,9.6962831 12.18914,9.3896491 v -1.253906 c 0,-0.306634 0.0874,-0.54079 0.26172,-0.703125 0.17436,-0.168348 0.41227,-0.251953 0.71289,-0.251953 0.28258,0 0.51119,0.07054 0.68554,0.214843 0.18038,0.138286 0.27884,0.337169 0.29688,0.595703 h 1.10156 c -0.018,-0.553143 -0.21512,-0.987982 -0.58789,-1.30664 -0.37277,-0.324671 -0.8708,-0.488281 -1.49609,-0.48828 z m -5.1439006,0.974608 c 0.288596,0 0.515398,0.08361 0.677734,0.251954 0.162336,0.168348 0.242188,0.410009 0.242188,0.722656 v 1.24414 c 0,0.312647 -0.07985,0.552355 -0.242188,0.7207039 -0.162336,0.168347 -0.389138,0.253906 -0.677734,0.253906 -0.288597,0 -0.513447,-0.08556 -0.675781,-0.253906 C 7.1877444,9.9359931 7.1096934,9.6962831 7.1096924,9.3896491 v -1.24414 c 0,-0.306633 0.07805,-0.544542 0.234376,-0.71289 0.162334,-0.174361 0.387184,-0.261719 0.675781,-0.26172 z m -5.328126,1.857422 h 1.164062 v 0.595703 c 0,0.264548 -0.102217,0.4782889 -0.30664,0.6406249 -0.19841,0.156324 -0.456732,0.234375 -0.775391,0.234375 -0.276571,0 -0.495867,-0.06695 -0.658203,-0.199218 -0.156323,-0.132274 -0.234375,-0.3143439 -0.234375,-0.5488279 0,-0.22246 0.07054,-0.397176 0.214844,-0.523437 0.144298,-0.132274 0.343181,-0.199219 0.595703,-0.19922 z" sodipodi:nodetypes="ccccsscsssscccccsccccssscscscscccccssssccssccsccccsssscsccccssssssscsscsscscscscs"/>
  </g>
  </svg>
