<!-- Created with Inkscape (http://www.inkscape.org/) --><svg xmlns:inkscape="http://www.inkscape.org/namespaces/inkscape" xmlns:sodipodi="http://sodipodi.sourceforge.net/DTD/sodipodi-0.dtd" xmlns="http://www.w3.org/2000/svg" xmlns:svg="http://www.w3.org/2000/svg" width="16.0px" height="16.0px" viewBox="0 0 16.0 16.0" version="1.1" id="SVGRoot" sodipodi:docname="drawing.tar" inkscape:version="1.2.2 (732a01da63, 2022-12-09)">
  <sodipodi:namedview id="namedview311" pagecolor="#505050" bordercolor="#000000" borderopacity="1" inkscape:showpageshadow="0" inkscape:pageopacity="0" inkscape:pagecheckerboard="true" inkscape:deskcolor="#505050" inkscape:document-units="px" showgrid="true" inkscape:zoom="22.737368" inkscape:cx="4.3320758" inkscape:cy="2.550867" inkscape:window-width="1920" inkscape:window-height="1017" inkscape:window-x="-8" inkscape:window-y="-8" inkscape:window-maximized="1" inkscape:current-layer="layer3"/>
  <defs id="defs306"/>
  <g inkscape:groupmode="layer" id="layer15" inkscape:label="Layer 15">
    <path id="rect2790" style="fill:#ffffff;stroke:none;stroke-width:1.49;stroke-linecap:round;stroke-linejoin:round;stroke-dasharray:none" d="m 8.0007354,2.7871091 c -0.41109,0 -0.798,0.08014 -1.16072,0.239054 -0.35927,0.155453 -0.67433,0.367563 -0.94378,0.637016 -0.26945,0.269453 -0.48364,0.585199 -0.64254,0.947924 -0.15546,0.362725 -0.23353,0.748943 -0.23353,1.156578 h 1.48821 c 0,-0.207272 0.0373,-0.400727 0.11331,-0.580362 0.0794,-0.18309 0.18724,-0.341999 0.32196,-0.476726 0.13473,-0.134726 0.29157,-0.240435 0.4712,-0.316435 0.18309,-0.07945 0.37862,-0.118836 0.58589,-0.118836 0.20382,0 0.3952,0.03938 0.57483,0.118836 0.17964,0.07945 0.33648,0.185855 0.4712,0.32058 0.13473,0.134727 0.24251,0.293637 0.32197,0.476726 0.0794,0.179636 0.11883,0.372399 0.11883,0.576217 0,0.276361 -0.0622,0.514035 -0.18654,0.714397 -0.12091,0.200363 -0.27775,0.391053 -0.4712,0.570689 -0.24182,0.224544 -0.46015,0.452544 -0.6536,0.683998 -0.19345,0.231452 -0.35927,0.476035 -0.49745,0.735124 -0.13473,0.255636 -0.24044,0.529236 -0.31644,0.819415 -0.0725,0.290181 -0.10778,0.603853 -0.10778,0.9423989 h 1.48683 c 0,-0.217637 0.0235,-0.4200739 0.0718,-0.6066179 0.0518,-0.186544 0.12298,-0.359963 0.2128,-0.522326 0.0933,-0.165816 0.20382,-0.321962 0.33164,-0.467052 0.12781,-0.148545 0.26807,-0.293636 0.42007,-0.435271 0.18309,-0.169272 0.3489096,-0.341999 0.4974496,-0.51818 0.14855,-0.179636 0.27498,-0.368254 0.37862,-0.565162 0.10363,-0.200363 0.1824,-0.4104 0.23767,-0.631489 0.0587,-0.224544 0.0884,-0.46429 0.0884,-0.719924 0,-0.407635 -0.0802,-0.793853 -0.23905,-1.156578 -0.15546,-0.362725 -0.36757,-0.678471 -0.63702,-0.947924 -0.2694496,-0.269453 -0.5851996,-0.481563 -0.9479196,-0.637016 -0.36273,-0.158909 -0.74757,-0.239054 -1.1552,-0.239054 z m 0,8.5658619 c -0.13127,0 -0.25494,0.02488 -0.36894,0.07324 -0.11055,0.04836 -0.20797,0.115382 -0.29433,0.201745 -0.0829,0.08291 -0.14924,0.181709 -0.1976,0.295709 -0.0484,0.113998 -0.0719,0.234216 -0.0719,0.362034 0,0.127818 0.0235,0.247345 0.0719,0.35789 0.0484,0.113999 0.11469,0.212799 0.1976,0.295708 0.0864,0.08636 0.18585,0.153381 0.29985,0.201745 0.114,0.04836 0.2356,0.07185 0.36342,0.07185 0.12782,0 0.24596,-0.02349 0.35651,-0.07185 0.114,-0.04836 0.2128,-0.115381 0.29571,-0.201745 0.0864,-0.08291 0.15338,-0.181709 0.20174,-0.295708 0.0484,-0.110545 0.0732,-0.230072 0.0732,-0.35789 0,-0.127818 -0.0249,-0.248036 -0.0732,-0.362034 -0.0484,-0.114 -0.11538,-0.2128 -0.20174,-0.295709 -0.0829,-0.08636 -0.18171,-0.153381 -0.29571,-0.201745 -0.11055,-0.04836 -0.22869,-0.07324 -0.35651,-0.07324 z" sodipodi:nodetypes="scsccccscssscscsscccccccccccscscsscssscssscccssccs"/>
  </g>
  </svg>
