<!-- Created with Inkscape (http://www.inkscape.org/) --><svg xmlns:inkscape="http://www.inkscape.org/namespaces/inkscape" xmlns:sodipodi="http://sodipodi.sourceforge.net/DTD/sodipodi-0.dtd" xmlns="http://www.w3.org/2000/svg" xmlns:svg="http://www.w3.org/2000/svg" width="16.0px" height="16.0px" viewBox="0 0 16.0 16.0" version="1.1" id="SVGRoot" sodipodi:docname="drawing.tar" inkscape:version="1.2.2 (732a01da63, 2022-12-09)">
  <sodipodi:namedview id="namedview311" pagecolor="#505050" bordercolor="#000000" borderopacity="1" inkscape:showpageshadow="0" inkscape:pageopacity="0" inkscape:pagecheckerboard="true" inkscape:deskcolor="#505050" inkscape:document-units="px" showgrid="true" inkscape:zoom="22.737368" inkscape:cx="4.3320758" inkscape:cy="2.550867" inkscape:window-width="1920" inkscape:window-height="1017" inkscape:window-x="-8" inkscape:window-y="-8" inkscape:window-maximized="1" inkscape:current-layer="layer3"/>
  <defs id="defs306"/>
  <g inkscape:groupmode="layer" id="layer11" inkscape:label="Layer 11">
    <path id="text773-2" style="font-style:normal;font-variant:normal;font-weight:normal;font-stretch:normal;font-size:10.6115px;font-family:'JetBrains Mono';-inkscape-font-specification:'JetBrains Mono';fill:#ffffff;stroke-width:0.899999;stroke-linecap:round;stroke-linejoin:round" d="m 4.3139304,4.3139301 c -2.029516,2.029516 -2.029517,5.342624 0,7.3721419 2.029518,2.029516 5.342625,2.029516 7.3721396,0 2.029517,-2.0295179 2.029517,-5.3426259 0,-7.3721419 -2.0295146,-2.029518 -5.3426226,-2.029518 -7.3721396,0 z m 1.053755,1.053755 c 1.279097,-1.279097 3.237224,-1.43703 4.6845836,-0.475087 L 4.8925984,10.052267 C 3.9306554,8.6049071 4.0885884,6.6467801 5.3676854,5.3676851 Z M 5.9477344,11.107404 11.1074,5.9477331 c 0.961947,1.44736 0.804007,3.405487 -0.475083,4.6845839 -1.2790966,1.279097 -3.2372226,1.43703 -4.6845826,0.475087 z"/>
  </g>
  </svg>
