<!-- Created with Inkscape (http://www.inkscape.org/) --><svg xmlns:inkscape="http://www.inkscape.org/namespaces/inkscape" xmlns:sodipodi="http://sodipodi.sourceforge.net/DTD/sodipodi-0.dtd" xmlns="http://www.w3.org/2000/svg" xmlns:svg="http://www.w3.org/2000/svg" width="16.0px" height="16.0px" viewBox="0 0 16.0 16.0" version="1.1" id="SVGRoot" sodipodi:docname="drawing.tar" inkscape:version="1.2.2 (732a01da63, 2022-12-09)">
  <sodipodi:namedview id="namedview311" pagecolor="#505050" bordercolor="#000000" borderopacity="1" inkscape:showpageshadow="0" inkscape:pageopacity="0" inkscape:pagecheckerboard="true" inkscape:deskcolor="#505050" inkscape:document-units="px" showgrid="true" inkscape:zoom="22.737368" inkscape:cx="4.3320758" inkscape:cy="2.550867" inkscape:window-width="1920" inkscape:window-height="1017" inkscape:window-x="-8" inkscape:window-y="-8" inkscape:window-maximized="1" inkscape:current-layer="layer3"/>
  <defs id="defs306"/>
  <g inkscape:groupmode="layer" id="layer17" inkscape:label="Layer 17">
    <path id="text757" style="font-style:normal;font-variant:normal;font-weight:bold;font-stretch:normal;font-size:11.0857px;font-family:'JetBrains Mono';-inkscape-font-specification:'JetBrains Mono Bold';fill:#ffffff;stroke-width:0.900003;stroke-linecap:round;stroke-linejoin:round" d="m 6.4960904,2.7841801 c -0.65036,0 -1.1641,0.176509 -1.54101,0.53125 -0.37692,0.347352 -0.53569,0.812638 -0.47657,1.396485 l 0.16602,1.740234 c 0.0296,0.295618 -0.0213,0.522536 -0.1543,0.677734 -0.13302,0.1552 -0.36232,0.232422 -0.6875,0.232422 h -1.4414 v 1.275391 h 1.4414 c 0.32518,0 0.55448,0.07722 0.6875,0.232422 0.13303,0.155199 0.18386,0.384491 0.1543,0.6875 l -0.16602,1.6835939 c -0.0591,0.598626 0.0997,1.076898 0.47657,1.43164 0.37691,0.362133 0.89065,0.542969 1.54101,0.542969 h 0.76367 v -1.287109 h -0.56445 c -0.27345,-1e-6 -0.48738,-0.06619 -0.64258,-0.199219 -0.14781,-0.140419 -0.21162,-0.332287 -0.18945,-0.576172 l 0.16602,-1.7285159 c 0.037,-0.376912 -0.0537,-0.696412 -0.2754,-0.955078 -0.21432,-0.258666 -0.51846,-0.424142 -0.91015,-0.498047 0.39169,-0.06651 0.69583,-0.220958 0.91015,-0.464844 0.22172,-0.243884 0.31235,-0.554728 0.2754,-0.93164 l -0.16602,-1.730469 c -0.0148,-0.251275 0.0514,-0.443143 0.19922,-0.576172 0.14781,-0.140418 0.35936,-0.210937 0.63281,-0.210937 h 0.56445 v -1.273438 z m 2.24219,0 v 1.273438 h 0.56641 c 0.27344,0 0.48305,0.07052 0.63086,0.210937 0.1477896,0.133029 0.2139896,0.324897 0.1992096,0.576172 l -0.1660096,1.730469 c -0.0369,0.376912 0.0513,0.687756 0.2656196,0.93164 0.21433,0.243886 0.52279,0.39833 0.92188,0.464844 -0.3917,0.06651 -0.70016,0.231991 -0.92188,0.498047 -0.21432,0.258666 -0.3025696,0.578166 -0.2656196,0.955078 L 10.13476,11.153321 c 0.0222,0.243885 -0.044,0.435753 -0.1992096,0.576172 -0.14781,0.133028 -0.35742,0.199219 -0.63086,0.199219 h -0.56641 v 1.287109 h 0.76562 c 0.6503596,0 1.1641096,-0.180836 1.5410196,-0.542969 0.37691,-0.354742 0.53569,-0.833014 0.47656,-1.43164 L 11.35547,9.5576181 c -0.0296,-0.303009 0.0213,-0.532301 0.15429,-0.6875 0.13303,-0.1552 0.36232,-0.232422 0.6875,-0.232422 h 1.44141 v -1.275391 h -1.44141 c -0.32518,0 -0.55447,-0.07722 -0.6875,-0.232422 -0.13302,-0.155198 -0.18385,-0.382116 -0.15429,-0.677734 l 0.16601,-1.740234 c 0.0591,-0.583847 -0.0997,-1.049133 -0.47656,-1.396485 -0.37691,-0.354741 -0.89066,-0.53125 -1.5410196,-0.53125 z"/>
  </g>
  </svg>
