<!-- Created with Inkscape (http://www.inkscape.org/) --><svg xmlns:inkscape="http://www.inkscape.org/namespaces/inkscape" xmlns:sodipodi="http://sodipodi.sourceforge.net/DTD/sodipodi-0.dtd" xmlns="http://www.w3.org/2000/svg" xmlns:svg="http://www.w3.org/2000/svg" width="16.0px" height="16.0px" viewBox="0 0 16.0 16.0" version="1.1" id="SVGRoot" sodipodi:docname="drawing.tar" inkscape:version="1.2.2 (732a01da63, 2022-12-09)">
  <sodipodi:namedview id="namedview311" pagecolor="#505050" bordercolor="#000000" borderopacity="1" inkscape:showpageshadow="0" inkscape:pageopacity="0" inkscape:pagecheckerboard="true" inkscape:deskcolor="#505050" inkscape:document-units="px" showgrid="true" inkscape:zoom="22.737368" inkscape:cx="4.3320758" inkscape:cy="2.550867" inkscape:window-width="1920" inkscape:window-height="1017" inkscape:window-x="-8" inkscape:window-y="-8" inkscape:window-maximized="1" inkscape:current-layer="layer3"/>
  <defs id="defs306"/>
  <g inkscape:groupmode="layer" id="layer16" inkscape:label="Layer 16">
    <path id="rect2790-3" style="fill:#ffffff;stroke:none;stroke-width:1.49;stroke-linecap:round;stroke-linejoin:round;stroke-dasharray:none" d="m 6.1435554,3.3505871 c -0.13127,0 -0.25514,0.02586 -0.36914,0.07422 -0.11055,0.04836 -0.20856,0.114809 -0.29492,0.201172 -0.0829,0.08291 -0.14891,0.180922 -0.19727,0.294922 -0.0484,0.113998 -0.0723,0.235463 -0.0723,0.363281 0,0.127818 0.0239,0.246877 0.0723,0.357422 0.0484,0.113999 0.11436,0.212013 0.19727,0.294922 0.0864,0.08636 0.18678,0.154761 0.30078,0.203125 0.114,0.04836 0.23546,0.07031 0.36328,0.07031 0.12782,0 0.24687,-0.02195 0.35742,-0.07031 0.114,-0.04836 0.21202,-0.116761 0.29493,-0.203125 0.0864,-0.08291 0.15281,-0.180923 0.20117,-0.294922 0.0484,-0.110545 0.0742,-0.229604 0.0742,-0.357422 0,-0.127818 -0.0259,-0.249283 -0.0742,-0.363281 -0.0484,-0.114 -0.11481,-0.212013 -0.20117,-0.294922 -0.0829,-0.08636 -0.18093,-0.152808 -0.29493,-0.201172 -0.11055,-0.04836 -0.2296,-0.07422 -0.35742,-0.07422 z m 3.7207,0 c -0.13127,0 -0.25514,0.02586 -0.36914,0.07422 -0.11055,0.04836 -0.20856,0.114809 -0.29492,0.201172 -0.0829,0.08291 -0.1489,0.180922 -0.19726,0.294922 -0.0484,0.113998 -0.0723,0.235463 -0.0723,0.363281 0,0.127818 0.0239,0.246877 0.0723,0.357422 0.0484,0.113999 0.11435,0.212013 0.19726,0.294922 0.0864,0.08636 0.18678,0.154761 0.30078,0.203125 0.114,0.04836 0.23546,0.07031 0.36328,0.07031 0.12782,0 0.2449196,-0.02195 0.3554696,-0.07031 0.114,-0.04836 0.21397,-0.116761 0.29688,-0.203125 0.0864,-0.08291 0.15281,-0.180923 0.20117,-0.294922 0.0484,-0.110545 0.0723,-0.229604 0.0723,-0.357422 0,-0.127818 -0.024,-0.249283 -0.0723,-0.363281 -0.0484,-0.114 -0.11481,-0.212013 -0.20117,-0.294922 -0.0829,-0.08636 -0.18288,-0.152808 -0.29688,-0.201172 -0.11055,-0.04836 -0.2276496,-0.07422 -0.3554696,-0.07422 z m -3.76953,3.720703 c -0.11317,0.0054 -0.22056,0.02995 -0.32031,0.07227 -0.11055,0.04836 -0.20856,0.114809 -0.29492,0.201172 -0.0829,0.08291 -0.14891,0.182874 -0.19727,0.296874 -0.0484,0.113998 -0.0723,0.233511 -0.0723,0.361328 0,0.127818 0.0239,0.246877 0.0723,0.357422 0.0484,0.113999 0.11436,0.213966 0.19727,0.296875 0.0864,0.08636 0.18678,0.152808 0.30078,0.201172 0.114,0.04836 0.23546,0.07227 0.36328,0.07227 0.12782,0 0.24687,-0.02391 0.35742,-0.07227 0.114,-0.04836 0.21202,-0.114808 0.29493,-0.201172 0.0864,-0.08291 0.15281,-0.182876 0.20117,-0.296875 0.0484,-0.110545 0.0742,-0.229604 0.0742,-0.357422 0,-0.127817 -0.0259,-0.24733 -0.0742,-0.361328 -0.0484,-0.114 -0.11481,-0.213965 -0.20117,-0.296874 -0.0829,-0.08636 -0.18093,-0.152808 -0.29493,-0.201172 -0.11055,-0.04836 -0.2296,-0.07227 -0.35742,-0.07227 -0.0164,0 -0.0327,-7.75e-4 -0.0488,0 z m 3.72071,0 c -0.11317,0.0054 -0.22057,0.02995 -0.32032,0.07227 -0.11055,0.04836 -0.20856,0.114809 -0.29492,0.201172 -0.0829,0.08291 -0.1489,0.182874 -0.19726,0.296874 -0.0484,0.113998 -0.0723,0.233511 -0.0723,0.361328 0,0.127818 0.0239,0.246877 0.0723,0.357422 0.0484,0.113999 0.11435,0.213966 0.19726,0.296875 0.0864,0.08636 0.18678,0.152808 0.30078,0.201172 0.114,0.04836 0.23546,0.07227 0.36328,0.07227 0.12782,0 0.2449196,-0.02391 0.3554696,-0.07227 0.114,-0.04836 0.21397,-0.114808 0.29688,-0.201172 0.0864,-0.08291 0.15281,-0.182876 0.20117,-0.296875 0.0484,-0.110545 0.0723,-0.229604 0.0723,-0.357422 0,-0.127817 -0.024,-0.24733 -0.0723,-0.361328 -0.0484,-0.114 -0.11481,-0.213965 -0.20117,-0.296874 -0.0829,-0.08636 -0.18288,-0.152808 -0.29688,-0.201172 -0.11055,-0.04836 -0.2276496,-0.07227 -0.3554696,-0.07227 -0.0164,0 -0.0327,-7.75e-4 -0.0488,0 z m -3.67188,3.7187499 c -0.13127,0 -0.25514,0.02586 -0.36914,0.07422 -0.11055,0.04836 -0.20856,0.114809 -0.29492,0.201171 -0.0829,0.08291 -0.14891,0.180922 -0.19727,0.294922 -0.0484,0.113998 -0.0723,0.235464 -0.0723,0.363282 0,0.127817 0.0239,0.246877 0.0723,0.357421 0.0484,0.113999 0.11436,0.212013 0.19727,0.294922 0.0864,0.08636 0.18678,0.154761 0.30078,0.203125 0.114,0.04836 0.23546,0.07031 0.36328,0.07031 0.12782,0 0.24687,-0.02195 0.35742,-0.07031 0.114,-0.04836 0.21202,-0.116761 0.29493,-0.203125 0.0864,-0.08291 0.15281,-0.180923 0.20117,-0.294922 0.0484,-0.110544 0.0742,-0.229604 0.0742,-0.357421 0,-0.127818 -0.0259,-0.249284 -0.0742,-0.363282 -0.0484,-0.114 -0.11481,-0.212013 -0.20117,-0.294922 -0.0829,-0.08636 -0.18093,-0.152807 -0.29493,-0.201171 -0.11055,-0.04836 -0.2296,-0.07422 -0.35742,-0.07422 z m 3.7207,0 c -0.13127,0 -0.25514,0.02586 -0.36914,0.07422 -0.11055,0.04836 -0.20856,0.114809 -0.29492,0.201171 -0.0829,0.08291 -0.1489,0.180922 -0.19726,0.294922 -0.0484,0.113998 -0.0723,0.235464 -0.0723,0.363282 0,0.127817 0.0239,0.246877 0.0723,0.357421 0.0484,0.113999 0.11435,0.212013 0.19726,0.294922 0.0864,0.08636 0.18678,0.154761 0.30078,0.203125 0.114,0.04836 0.23546,0.07031 0.36328,0.07031 0.12782,0 0.2449196,-0.02195 0.3554696,-0.07031 0.114,-0.04836 0.21397,-0.116761 0.29688,-0.203125 0.0864,-0.08291 0.15281,-0.180923 0.20117,-0.294922 0.0484,-0.110544 0.0723,-0.229604 0.0723,-0.357421 0,-0.127818 -0.024,-0.249284 -0.0723,-0.363282 -0.0484,-0.114 -0.11481,-0.212013 -0.20117,-0.294922 -0.0829,-0.08636 -0.18288,-0.152807 -0.29688,-0.201171 -0.11055,-0.04836 -0.2276496,-0.07422 -0.3554696,-0.07422 z"/>
  </g>
  </svg>
